<svg width="218" height="218" viewBox="0 0 218 218" fill="none" xmlns="http://www.w3.org/2000/svg">
<g filter="url(#filter0_d_40_173)">
<rect x="4" width="210" height="210" rx="31" fill="url(#paint0_linear_40_173)"/>
<rect x="5" y="1" width="208" height="208" rx="30" stroke="black" stroke-width="2"/>
</g>
<rect x="33" y="152.968" width="29" height="28.0323" rx="3" fill="url(#paint1_linear_40_173)"/>
<rect x="74" y="135.979" width="29" height="45.0215" rx="3" fill="url(#paint2_linear_40_173)"/>
<rect x="115" y="118.989" width="29" height="62.0108" rx="3" fill="url(#paint3_linear_40_173)"/>
<rect x="156" y="102" width="29" height="79" rx="3" fill="url(#paint4_linear_40_173)"/>
<g clip-path="url(#clip0_40_173)">
<path d="M108.5 32.5V109.5" stroke="url(#paint5_linear_40_173)" stroke-width="10" stroke-linecap="round" stroke-linejoin="round"/>
<path d="M125.792 46.5H99.8542C96.6439 46.5 93.5652 47.7906 91.2952 50.0879C89.0253 52.3853 87.75 55.5011 87.75 58.75C87.75 61.9989 89.0253 65.1147 91.2952 67.4121C93.5652 69.7094 96.6439 71 99.8542 71H117.146C120.356 71 123.435 72.2906 125.705 74.5879C127.975 76.8853 129.25 80.0011 129.25 83.25C129.25 86.4989 127.975 89.6147 125.705 91.9121C123.435 94.2094 120.356 95.5 117.146 95.5H87.75" stroke="url(#paint6_linear_40_173)" stroke-width="10" stroke-linecap="round" stroke-linejoin="round"/>
</g>
<defs>
<filter id="filter0_d_40_173" x="0" y="0" width="218" height="218" filterUnits="userSpaceOnUse" color-interpolation-filters="sRGB">
<feFlood flood-opacity="0" result="BackgroundImageFix"/>
<feColorMatrix in="SourceAlpha" type="matrix" values="0 0 0 0 0 0 0 0 0 0 0 0 0 0 0 0 0 0 127 0" result="hardAlpha"/>
<feOffset dy="4"/>
<feGaussianBlur stdDeviation="2"/>
<feComposite in2="hardAlpha" operator="out"/>
<feColorMatrix type="matrix" values="0 0 0 0 0 0 0 0 0 0 0 0 0 0 0 0 0 0 0.25 0"/>
<feBlend mode="normal" in2="BackgroundImageFix" result="effect1_dropShadow_40_173"/>
<feBlend mode="normal" in="SourceGraphic" in2="effect1_dropShadow_40_173" result="shape"/>
</filter>
<linearGradient id="paint0_linear_40_173" x1="109" y1="0" x2="109" y2="210" gradientUnits="userSpaceOnUse">
<stop offset="0.0432692" stop-color="#396604"/>
<stop offset="0.423077" stop-color="#315704"/>
<stop offset="0.913462" stop-color="#284703"/>
</linearGradient>
<linearGradient id="paint1_linear_40_173" x1="47.5" y1="152.968" x2="47.5" y2="181" gradientUnits="userSpaceOnUse">
<stop stop-color="white"/>
<stop offset="1" stop-color="#D9D9D9"/>
</linearGradient>
<linearGradient id="paint2_linear_40_173" x1="88.5" y1="135.979" x2="88.5" y2="181" gradientUnits="userSpaceOnUse">
<stop stop-color="white"/>
<stop offset="1" stop-color="#D9D9D9"/>
</linearGradient>
<linearGradient id="paint3_linear_40_173" x1="129.5" y1="118.989" x2="129.5" y2="181" gradientUnits="userSpaceOnUse">
<stop stop-color="white"/>
<stop offset="1" stop-color="#D9D9D9"/>
</linearGradient>
<linearGradient id="paint4_linear_40_173" x1="170.5" y1="102" x2="170.5" y2="181" gradientUnits="userSpaceOnUse">
<stop stop-color="white"/>
<stop offset="1" stop-color="#D9D9D9"/>
</linearGradient>
<linearGradient id="paint5_linear_40_173" x1="109" y1="32.5" x2="109" y2="109.5" gradientUnits="userSpaceOnUse">
<stop stop-color="white"/>
<stop offset="1" stop-color="#D9D9D9"/>
</linearGradient>
<linearGradient id="paint6_linear_40_173" x1="108.5" y1="46.5" x2="108.5" y2="95.5" gradientUnits="userSpaceOnUse">
<stop stop-color="white"/>
<stop offset="1" stop-color="#D9D9D9"/>
</linearGradient>
<clipPath id="clip0_40_173">
<rect width="83" height="84" fill="white" transform="translate(67 29)"/>
</clipPath>
</defs>
</svg>
