<svg width="236" height="292" viewBox="0 0 236 292" fill="none" xmlns="http://www.w3.org/2000/svg">
<mask id="path-1-outside-1_40_160" maskUnits="userSpaceOnUse" x="1" y="233" width="235" height="43" fill="black">
<rect fill="white" x="1" y="233" width="235" height="43"/>
<path d="M24 239.496V244.92H10.032V253.512H20.736V258.84H10.032V273H3.312V239.496H24ZM36.9731 243.24C35.7891 243.24 34.7971 242.872 33.9971 242.136C33.2291 241.368 32.8451 240.424 32.8451 239.304C32.8451 238.184 33.2291 237.256 33.9971 236.52C34.7971 235.752 35.7891 235.368 36.9731 235.368C38.1571 235.368 39.1331 235.752 39.9011 236.52C40.7011 237.256 41.1011 238.184 41.1011 239.304C41.1011 240.424 40.7011 241.368 39.9011 242.136C39.1331 242.872 38.1571 243.24 36.9731 243.24ZM40.2851 246.408V273H33.5651V246.408H40.2851ZM66.4605 246.024C69.6285 246.024 72.1885 247.032 74.1405 249.048C76.0925 251.032 77.0685 253.816 77.0685 257.4V273H70.3485V258.312C70.3485 256.2 69.8205 254.584 68.7645 253.464C67.7085 252.312 66.2685 251.736 64.4445 251.736C62.5885 251.736 61.1165 252.312 60.0285 253.464C58.9725 254.584 58.4445 256.2 58.4445 258.312V273H51.7245V246.408H58.4445V249.72C59.3405 248.568 60.4765 247.672 61.8525 247.032C63.2605 246.36 64.7965 246.024 66.4605 246.024ZM96.0829 251.928V264.792C96.0829 265.688 96.2909 266.344 96.7069 266.76C97.1549 267.144 97.8909 267.336 98.9149 267.336H102.035V273H97.8109C92.1469 273 89.3149 270.248 89.3149 264.744V251.928H86.1469V246.408H89.3149V239.832H96.0829V246.408H102.035V251.928H96.0829ZM118.388 250.536C119.252 249.128 120.372 248.024 121.748 247.224C123.156 246.424 124.756 246.024 126.548 246.024V253.08H124.772C122.66 253.08 121.06 253.576 119.972 254.568C118.916 255.56 118.388 257.288 118.388 259.752V273H111.668V246.408H118.388V250.536ZM134.146 259.608C134.146 256.92 134.674 254.536 135.73 252.456C136.819 250.376 138.275 248.776 140.099 247.656C141.955 246.536 144.019 245.976 146.291 245.976C148.275 245.976 150.003 246.376 151.475 247.176C152.979 247.976 154.179 248.984 155.075 250.2V246.408H161.843V273H155.075V269.112C154.211 270.36 153.011 271.4 151.475 272.232C149.971 273.032 148.227 273.432 146.243 273.432C144.003 273.432 141.955 272.856 140.099 271.704C138.275 270.552 136.819 268.936 135.73 266.856C134.674 264.744 134.146 262.328 134.146 259.608ZM155.075 259.704C155.075 258.072 154.755 256.68 154.115 255.528C153.475 254.344 152.611 253.448 151.523 252.84C150.435 252.2 149.267 251.88 148.019 251.88C146.771 251.88 145.619 252.184 144.562 252.792C143.507 253.4 142.643 254.296 141.971 255.48C141.331 256.632 141.011 258.008 141.011 259.608C141.011 261.208 141.331 262.616 141.971 263.832C142.643 265.016 143.507 265.928 144.562 266.568C145.651 267.208 146.803 267.528 148.019 267.528C149.267 267.528 150.435 267.224 151.523 266.616C152.611 265.976 153.475 265.08 154.115 263.928C154.755 262.744 155.075 261.336 155.075 259.704ZM171.478 259.704C171.478 256.952 172.038 254.552 173.158 252.504C174.278 250.424 175.83 248.824 177.814 247.704C179.798 246.552 182.07 245.976 184.63 245.976C187.926 245.976 190.646 246.808 192.79 248.472C194.966 250.104 196.422 252.408 197.158 255.384H189.91C189.526 254.232 188.87 253.336 187.942 252.696C187.046 252.024 185.926 251.688 184.582 251.688C182.662 251.688 181.142 252.392 180.022 253.8C178.902 255.176 178.342 257.144 178.342 259.704C178.342 262.232 178.902 264.2 180.022 265.608C181.142 266.984 182.662 267.672 184.582 267.672C187.302 267.672 189.078 266.456 189.91 264.024H197.158C196.422 266.904 194.966 269.192 192.79 270.888C190.614 272.584 187.894 273.432 184.63 273.432C182.07 273.432 179.798 272.872 177.814 271.752C175.83 270.6 174.278 269 173.158 266.952C172.038 264.872 171.478 262.456 171.478 259.704ZM222.625 273L213.601 261.672V273H206.881V237.48H213.601V257.688L222.529 246.408H231.265L219.553 259.752L231.361 273H222.625Z"/>
</mask>
<path d="M24 239.496V244.92H10.032V253.512H20.736V258.84H10.032V273H3.312V239.496H24ZM36.9731 243.24C35.7891 243.24 34.7971 242.872 33.9971 242.136C33.2291 241.368 32.8451 240.424 32.8451 239.304C32.8451 238.184 33.2291 237.256 33.9971 236.52C34.7971 235.752 35.7891 235.368 36.9731 235.368C38.1571 235.368 39.1331 235.752 39.9011 236.52C40.7011 237.256 41.1011 238.184 41.1011 239.304C41.1011 240.424 40.7011 241.368 39.9011 242.136C39.1331 242.872 38.1571 243.24 36.9731 243.24ZM40.2851 246.408V273H33.5651V246.408H40.2851ZM66.4605 246.024C69.6285 246.024 72.1885 247.032 74.1405 249.048C76.0925 251.032 77.0685 253.816 77.0685 257.4V273H70.3485V258.312C70.3485 256.2 69.8205 254.584 68.7645 253.464C67.7085 252.312 66.2685 251.736 64.4445 251.736C62.5885 251.736 61.1165 252.312 60.0285 253.464C58.9725 254.584 58.4445 256.2 58.4445 258.312V273H51.7245V246.408H58.4445V249.72C59.3405 248.568 60.4765 247.672 61.8525 247.032C63.2605 246.36 64.7965 246.024 66.4605 246.024ZM96.0829 251.928V264.792C96.0829 265.688 96.2909 266.344 96.7069 266.76C97.1549 267.144 97.8909 267.336 98.9149 267.336H102.035V273H97.8109C92.1469 273 89.3149 270.248 89.3149 264.744V251.928H86.1469V246.408H89.3149V239.832H96.0829V246.408H102.035V251.928H96.0829ZM118.388 250.536C119.252 249.128 120.372 248.024 121.748 247.224C123.156 246.424 124.756 246.024 126.548 246.024V253.08H124.772C122.66 253.08 121.06 253.576 119.972 254.568C118.916 255.56 118.388 257.288 118.388 259.752V273H111.668V246.408H118.388V250.536ZM134.146 259.608C134.146 256.92 134.674 254.536 135.73 252.456C136.819 250.376 138.275 248.776 140.099 247.656C141.955 246.536 144.019 245.976 146.291 245.976C148.275 245.976 150.003 246.376 151.475 247.176C152.979 247.976 154.179 248.984 155.075 250.2V246.408H161.843V273H155.075V269.112C154.211 270.36 153.011 271.4 151.475 272.232C149.971 273.032 148.227 273.432 146.243 273.432C144.003 273.432 141.955 272.856 140.099 271.704C138.275 270.552 136.819 268.936 135.73 266.856C134.674 264.744 134.146 262.328 134.146 259.608ZM155.075 259.704C155.075 258.072 154.755 256.68 154.115 255.528C153.475 254.344 152.611 253.448 151.523 252.84C150.435 252.2 149.267 251.88 148.019 251.88C146.771 251.88 145.619 252.184 144.562 252.792C143.507 253.4 142.643 254.296 141.971 255.48C141.331 256.632 141.011 258.008 141.011 259.608C141.011 261.208 141.331 262.616 141.971 263.832C142.643 265.016 143.507 265.928 144.562 266.568C145.651 267.208 146.803 267.528 148.019 267.528C149.267 267.528 150.435 267.224 151.523 266.616C152.611 265.976 153.475 265.08 154.115 263.928C154.755 262.744 155.075 261.336 155.075 259.704ZM171.478 259.704C171.478 256.952 172.038 254.552 173.158 252.504C174.278 250.424 175.83 248.824 177.814 247.704C179.798 246.552 182.07 245.976 184.63 245.976C187.926 245.976 190.646 246.808 192.79 248.472C194.966 250.104 196.422 252.408 197.158 255.384H189.91C189.526 254.232 188.87 253.336 187.942 252.696C187.046 252.024 185.926 251.688 184.582 251.688C182.662 251.688 181.142 252.392 180.022 253.8C178.902 255.176 178.342 257.144 178.342 259.704C178.342 262.232 178.902 264.2 180.022 265.608C181.142 266.984 182.662 267.672 184.582 267.672C187.302 267.672 189.078 266.456 189.91 264.024H197.158C196.422 266.904 194.966 269.192 192.79 270.888C190.614 272.584 187.894 273.432 184.63 273.432C182.07 273.432 179.798 272.872 177.814 271.752C175.83 270.6 174.278 269 173.158 266.952C172.038 264.872 171.478 262.456 171.478 259.704ZM222.625 273L213.601 261.672V273H206.881V237.48H213.601V257.688L222.529 246.408H231.265L219.553 259.752L231.361 273H222.625Z" fill="url(#paint0_linear_40_160)"/>
<path d="M24 239.496H26V237.496H24V239.496ZM24 244.92V246.92H26V244.92H24ZM10.032 244.92V242.92H8.032V244.92H10.032ZM10.032 253.512H8.032V255.512H10.032V253.512ZM20.736 253.512H22.736V251.512H20.736V253.512ZM20.736 258.84V260.84H22.736V258.84H20.736ZM10.032 258.84V256.84H8.032V258.84H10.032ZM10.032 273V275H12.032V273H10.032ZM3.312 273H1.312V275H3.312V273ZM3.312 239.496V237.496H1.312V239.496H3.312ZM24 239.496H22V244.92H24H26V239.496H24ZM24 244.92V242.92H10.032V244.92V246.92H24V244.92ZM10.032 244.92H8.032V253.512H10.032H12.032V244.92H10.032ZM10.032 253.512V255.512H20.736V253.512V251.512H10.032V253.512ZM20.736 253.512H18.736V258.84H20.736H22.736V253.512H20.736ZM20.736 258.84V256.84H10.032V258.84V260.84H20.736V258.84ZM10.032 258.84H8.032V273H10.032H12.032V258.84H10.032ZM10.032 273V271H3.312V273V275H10.032V273ZM3.312 273H5.312V239.496H3.312H1.312V273H3.312ZM3.312 239.496V241.496H24V239.496V237.496H3.312V239.496ZM33.9971 242.136L32.5829 243.55L32.6124 243.58L32.643 243.608L33.9971 242.136ZM33.9971 236.52L35.3809 237.964L35.3822 237.963L33.9971 236.52ZM39.9011 236.52L38.4869 237.934L38.5164 237.964L38.547 237.992L39.9011 236.52ZM39.9011 242.136L41.2849 243.58L41.2862 243.579L39.9011 242.136ZM40.2851 246.408H42.2851V244.408H40.2851V246.408ZM40.2851 273V275H42.2851V273H40.2851ZM33.5651 273H31.5651V275H33.5651V273ZM33.5651 246.408V244.408H31.5651V246.408H33.5651ZM36.9731 243.24V241.24C36.2421 241.24 35.7478 241.029 35.3512 240.664L33.9971 242.136L32.643 243.608C33.8465 244.715 35.3362 245.24 36.9731 245.24V243.24ZM33.9971 242.136L35.4113 240.722C35.0313 240.342 34.8451 239.912 34.8451 239.304H32.8451H30.8451C30.8451 240.936 31.427 242.394 32.5829 243.55L33.9971 242.136ZM32.8451 239.304H34.8451C34.8451 238.697 35.0293 238.301 35.3809 237.964L33.9971 236.52L32.6133 235.076C31.429 236.211 30.8451 237.671 30.8451 239.304H32.8451ZM33.9971 236.52L35.3822 237.963C35.7829 237.578 36.267 237.368 36.9731 237.368V235.368V233.368C35.3113 233.368 33.8114 233.926 32.6121 235.077L33.9971 236.52ZM36.9731 235.368V237.368C37.6793 237.368 38.1296 237.577 38.4869 237.934L39.9011 236.52L41.3153 235.106C40.1366 233.927 38.6349 233.368 36.9731 233.368V235.368ZM39.9011 236.52L38.547 237.992C38.9214 238.336 39.1011 238.724 39.1011 239.304H41.1011H43.1011C43.1011 237.644 42.4808 236.176 41.2552 235.048L39.9011 236.52ZM41.1011 239.304H39.1011C39.1011 239.886 38.9188 240.307 38.5161 240.693L39.9011 242.136L41.2862 243.579C42.4834 242.429 43.1011 240.962 43.1011 239.304H41.1011ZM39.9011 242.136L38.5173 240.692C38.1651 241.03 37.7048 241.24 36.9731 241.24V243.24V245.24C38.6094 245.24 40.1012 244.714 41.2849 243.58L39.9011 242.136ZM40.2851 246.408H38.2851V273H40.2851H42.2851V246.408H40.2851ZM40.2851 273V271H33.5651V273V275H40.2851V273ZM33.5651 273H35.5651V246.408H33.5651H31.5651V273H33.5651ZM33.5651 246.408V248.408H40.2851V246.408V244.408H33.5651V246.408ZM74.1405 249.048L72.7037 250.439L72.7092 250.445L72.7148 250.451L74.1405 249.048ZM77.0685 273V275H79.0685V273H77.0685ZM70.3485 273H68.3485V275H70.3485V273ZM68.7645 253.464L67.2902 254.815L67.2997 254.826L67.3093 254.836L68.7645 253.464ZM60.0285 253.464L58.5745 252.091L58.5733 252.092L60.0285 253.464ZM58.4445 273V275H60.4445V273H58.4445ZM51.7245 273H49.7245V275H51.7245V273ZM51.7245 246.408V244.408H49.7245V246.408H51.7245ZM58.4445 246.408H60.4445V244.408H58.4445V246.408ZM58.4445 249.72H56.4445V255.549L60.0232 250.948L58.4445 249.72ZM61.8525 247.032L62.696 248.845L62.705 248.841L62.714 248.837L61.8525 247.032ZM66.4605 246.024V248.024C69.1634 248.024 71.1785 248.864 72.7037 250.439L74.1405 249.048L75.5773 247.657C73.1985 245.2 70.0936 244.024 66.4605 244.024V246.024ZM74.1405 249.048L72.7148 250.451C74.2014 251.962 75.0685 254.183 75.0685 257.4H77.0685H79.0685C79.0685 253.449 77.9836 250.102 75.5662 247.645L74.1405 249.048ZM77.0685 257.4H75.0685V273H77.0685H79.0685V257.4H77.0685ZM77.0685 273V271H70.3485V273V275H77.0685V273ZM70.3485 273H72.3485V258.312H70.3485H68.3485V273H70.3485ZM70.3485 258.312H72.3485C72.3485 255.882 71.7384 253.703 70.2197 252.092L68.7645 253.464L67.3093 254.836C67.9026 255.465 68.3485 256.518 68.3485 258.312H70.3485ZM68.7645 253.464L70.2388 252.113C68.7398 250.477 66.7265 249.736 64.4445 249.736V251.736V253.736C65.8105 253.736 66.6772 254.147 67.2902 254.815L68.7645 253.464ZM64.4445 251.736V249.736C62.1408 249.736 60.1054 250.47 58.5745 252.091L60.0285 253.464L61.4825 254.837C62.1276 254.154 63.0362 253.736 64.4445 253.736V251.736ZM60.0285 253.464L58.5733 252.092C57.0546 253.703 56.4445 255.882 56.4445 258.312H58.4445H60.4445C60.4445 256.518 60.8904 255.465 61.4837 254.836L60.0285 253.464ZM58.4445 258.312H56.4445V273H58.4445H60.4445V258.312H58.4445ZM58.4445 273V271H51.7245V273V275H58.4445V273ZM51.7245 273H53.7245V246.408H51.7245H49.7245V273H51.7245ZM51.7245 246.408V248.408H58.4445V246.408V244.408H51.7245V246.408ZM58.4445 246.408H56.4445V249.72H58.4445H60.4445V246.408H58.4445ZM58.4445 249.72L60.0232 250.948C60.7162 250.057 61.5962 249.357 62.696 248.845L61.8525 247.032L61.009 245.219C59.3568 245.987 57.9648 247.079 56.8658 248.492L58.4445 249.72ZM61.8525 247.032L62.714 248.837C63.8352 248.302 65.0743 248.024 66.4605 248.024V246.024V244.024C64.5187 244.024 62.6858 244.418 60.991 245.227L61.8525 247.032ZM96.0829 251.928V249.928H94.0829V251.928H96.0829ZM96.7069 266.76L95.2927 268.174L95.347 268.229L95.4053 268.279L96.7069 266.76ZM102.035 267.336H104.035V265.336H102.035V267.336ZM102.035 273V275H104.035V273H102.035ZM89.3149 251.928H91.3149V249.928H89.3149V251.928ZM86.1469 251.928H84.1469V253.928H86.1469V251.928ZM86.1469 246.408V244.408H84.1469V246.408H86.1469ZM89.3149 246.408V248.408H91.3149V246.408H89.3149ZM89.3149 239.832V237.832H87.3149V239.832H89.3149ZM96.0829 239.832H98.0829V237.832H96.0829V239.832ZM96.0829 246.408H94.0829V248.408H96.0829V246.408ZM102.035 246.408H104.035V244.408H102.035V246.408ZM102.035 251.928V253.928H104.035V251.928H102.035ZM96.0829 251.928H94.0829V264.792H96.0829H98.0829V251.928H96.0829ZM96.0829 264.792H94.0829C94.0829 265.946 94.3451 267.227 95.2927 268.174L96.7069 266.76L98.1211 265.346C98.1752 265.4 98.1689 265.426 98.1453 265.352C98.1188 265.268 98.0829 265.093 98.0829 264.792H96.0829ZM96.7069 266.76L95.4053 268.279C96.4008 269.132 97.7326 269.336 98.9149 269.336V267.336V265.336C98.5186 265.336 98.2573 265.298 98.0997 265.257C97.9435 265.216 97.9453 265.187 98.0085 265.241L96.7069 266.76ZM98.9149 267.336V269.336H102.035V267.336V265.336H98.9149V267.336ZM102.035 267.336H100.035V273H102.035H104.035V267.336H102.035ZM102.035 273V271H97.8109V273V275H102.035V273ZM97.8109 273V271C95.273 271 93.7396 270.383 92.8327 269.502C91.9364 268.631 91.3149 267.173 91.3149 264.744H89.3149H87.3149C87.3149 267.819 88.1094 270.489 90.0451 272.37C91.9701 274.241 94.6847 275 97.8109 275V273ZM89.3149 264.744H91.3149V251.928H89.3149H87.3149V264.744H89.3149ZM89.3149 251.928V249.928H86.1469V251.928V253.928H89.3149V251.928ZM86.1469 251.928H88.1469V246.408H86.1469H84.1469V251.928H86.1469ZM86.1469 246.408V248.408H89.3149V246.408V244.408H86.1469V246.408ZM89.3149 246.408H91.3149V239.832H89.3149H87.3149V246.408H89.3149ZM89.3149 239.832V241.832H96.0829V239.832V237.832H89.3149V239.832ZM96.0829 239.832H94.0829V246.408H96.0829H98.0829V239.832H96.0829ZM96.0829 246.408V248.408H102.035V246.408V244.408H96.0829V246.408ZM102.035 246.408H100.035V251.928H102.035H104.035V246.408H102.035ZM102.035 251.928V249.928H96.0829V251.928V253.928H102.035V251.928ZM118.388 250.536H116.388V257.619L120.093 251.582L118.388 250.536ZM121.748 247.224L120.76 245.485L120.752 245.49L120.743 245.495L121.748 247.224ZM126.548 246.024H128.548V244.024H126.548V246.024ZM126.548 253.08V255.08H128.548V253.08H126.548ZM119.972 254.568L118.625 253.09L118.614 253.1L118.603 253.11L119.972 254.568ZM118.388 273V275H120.388V273H118.388ZM111.668 273H109.668V275H111.668V273ZM111.668 246.408V244.408H109.668V246.408H111.668ZM118.388 246.408H120.388V244.408H118.388V246.408ZM118.388 250.536L120.093 251.582C120.791 250.445 121.675 249.58 122.753 248.953L121.748 247.224L120.743 245.495C119.07 246.468 117.714 247.811 116.684 249.49L118.388 250.536ZM121.748 247.224L122.736 248.963C123.812 248.352 125.065 248.024 126.548 248.024V246.024V244.024C124.448 244.024 122.501 244.496 120.76 245.485L121.748 247.224ZM126.548 246.024H124.548V253.08H126.548H128.548V246.024H126.548ZM126.548 253.08V251.08H124.772V253.08V255.08H126.548V253.08ZM124.772 253.08V251.08C122.377 251.08 120.214 251.641 118.625 253.09L119.972 254.568L121.32 256.046C121.907 255.511 122.944 255.08 124.772 255.08V253.08ZM119.972 254.568L118.603 253.11C116.939 254.674 116.388 257.102 116.388 259.752H118.388H120.388C120.388 257.474 120.894 256.446 121.342 256.026L119.972 254.568ZM118.388 259.752H116.388V273H118.388H120.388V259.752H118.388ZM118.388 273V271H111.668V273V275H118.388V273ZM111.668 273H113.668V246.408H111.668H109.668V273H111.668ZM111.668 246.408V248.408H118.388V246.408V244.408H111.668V246.408ZM118.388 246.408H116.388V250.536H118.388H120.388V246.408H118.388ZM135.73 252.456L133.958 251.529L133.953 251.54L133.947 251.551L135.73 252.456ZM140.099 247.656L139.065 245.944L139.059 245.948L139.052 245.952L140.099 247.656ZM151.475 247.176L150.519 248.933L150.527 248.938L150.535 248.942L151.475 247.176ZM155.075 250.2L153.464 251.386L157.075 256.286V250.2H155.075ZM155.075 246.408V244.408H153.075V246.408H155.075ZM161.843 246.408H163.843V244.408H161.843V246.408ZM161.843 273V275H163.843V273H161.843ZM155.075 273H153.075V275H155.075V273ZM155.075 269.112H157.075V262.709L153.43 267.974L155.075 269.112ZM151.475 272.232L152.414 273.998L152.42 273.994L152.427 273.991L151.475 272.232ZM140.099 271.704L139.031 273.395L139.037 273.399L139.044 273.403L140.099 271.704ZM135.73 266.856L133.942 267.75L133.95 267.767L133.958 267.783L135.73 266.856ZM154.115 255.528L152.355 256.479L152.361 256.489L152.366 256.499L154.115 255.528ZM151.523 252.84L150.508 254.564L150.528 254.575L150.547 254.586L151.523 252.84ZM144.562 252.792L143.565 251.059L143.565 251.059L144.562 252.792ZM141.971 255.48L140.231 254.493L140.227 254.501L140.222 254.509L141.971 255.48ZM141.971 263.832L140.201 264.763L140.215 264.792L140.231 264.819L141.971 263.832ZM144.562 266.568L143.526 268.278L143.537 268.285L143.548 268.292L144.562 266.568ZM151.523 266.616L152.498 268.362L152.517 268.351L152.537 268.34L151.523 266.616ZM154.115 263.928L155.863 264.899L155.868 264.889L155.874 264.879L154.115 263.928ZM134.146 259.608H136.146C136.146 257.187 136.621 255.121 137.514 253.361L135.73 252.456L133.947 251.551C132.728 253.951 132.146 256.653 132.146 259.608H134.146ZM135.73 252.456L137.503 253.383C138.44 251.591 139.658 250.273 141.145 249.36L140.099 247.656L139.052 245.952C136.891 247.279 135.197 249.161 133.958 251.529L135.73 252.456ZM140.099 247.656L141.132 249.368C142.661 248.446 144.364 247.976 146.291 247.976V245.976V243.976C143.673 243.976 141.248 244.626 139.065 245.944L140.099 247.656ZM146.291 245.976V247.976C148.002 247.976 149.39 248.32 150.519 248.933L151.475 247.176L152.43 245.419C150.615 244.432 148.547 243.976 146.291 243.976V245.976ZM151.475 247.176L150.535 248.942C151.809 249.619 152.767 250.44 153.464 251.386L155.075 250.2L156.685 249.014C155.59 247.528 154.148 246.333 152.414 245.41L151.475 247.176ZM155.075 250.2H157.075V246.408H155.075H153.075V250.2H155.075ZM155.075 246.408V248.408H161.843V246.408V244.408H155.075V246.408ZM161.843 246.408H159.843V273H161.843H163.843V246.408H161.843ZM161.843 273V271H155.075V273V275H161.843V273ZM155.075 273H157.075V269.112H155.075H153.075V273H155.075ZM155.075 269.112L153.43 267.974C152.77 268.927 151.824 269.768 150.522 270.473L151.475 272.232L152.427 273.991C154.197 273.032 155.651 271.793 156.719 270.25L155.075 269.112ZM151.475 272.232L150.535 270.466C149.365 271.089 147.953 271.432 146.243 271.432V273.432V275.432C148.5 275.432 150.576 274.975 152.414 273.998L151.475 272.232ZM146.243 273.432V271.432C144.365 271.432 142.684 270.955 141.153 270.005L140.099 271.704L139.044 273.403C141.225 274.757 143.64 275.432 146.243 275.432V273.432ZM140.099 271.704L141.166 270.013C139.666 269.066 138.442 267.725 137.503 265.929L135.73 266.856L133.958 267.783C135.195 270.147 136.883 272.038 139.031 273.395L140.099 271.704ZM135.73 266.856L137.519 265.962C136.622 264.167 136.146 262.065 136.146 259.608H134.146H132.146C132.146 262.591 132.727 265.321 133.942 267.75L135.73 266.856ZM155.075 259.704H157.075C157.075 257.812 156.703 256.069 155.863 254.557L154.115 255.528L152.366 256.499C152.806 257.291 153.075 258.332 153.075 259.704H155.075ZM154.115 255.528L155.874 254.577C155.068 253.087 153.944 251.902 152.498 251.094L151.523 252.84L150.547 254.586C151.277 254.994 151.881 255.601 152.355 256.479L154.115 255.528ZM151.523 252.84L152.537 251.116C151.145 250.298 149.627 249.88 148.019 249.88V251.88V253.88C148.906 253.88 149.724 254.102 150.508 254.564L151.523 252.84ZM148.019 251.88V249.88C146.429 249.88 144.932 250.272 143.565 251.059L144.562 252.792L145.56 254.525C146.305 254.096 147.112 253.88 148.019 253.88V251.88ZM144.562 252.792L143.565 251.059C142.164 251.865 141.058 253.036 140.231 254.493L141.971 255.48L143.71 256.467C144.227 255.556 144.849 254.935 145.56 254.525L144.562 252.792ZM141.971 255.48L140.222 254.509C139.385 256.015 139.011 257.74 139.011 259.608H141.011H143.011C143.011 258.276 143.276 257.249 143.719 256.451L141.971 255.48ZM141.011 259.608H139.011C139.011 261.479 139.386 263.216 140.201 264.763L141.971 263.832L143.74 262.901C143.275 262.016 143.011 260.937 143.011 259.608H141.011ZM141.971 263.832L140.231 264.819C141.054 266.269 142.149 267.444 143.526 268.278L144.562 266.568L145.599 264.858C144.864 264.412 144.231 263.763 143.71 262.845L141.971 263.832ZM144.562 266.568L143.548 268.292C144.932 269.105 146.432 269.528 148.019 269.528V267.528V265.528C147.173 265.528 146.369 265.311 145.577 264.844L144.562 266.568ZM148.019 267.528V269.528C149.608 269.528 151.112 269.137 152.498 268.362L151.523 266.616L150.547 264.87C149.757 265.311 148.925 265.528 148.019 265.528V267.528ZM151.523 266.616L152.537 268.34C153.946 267.511 155.058 266.349 155.863 264.899L154.115 263.928L152.366 262.957C151.891 263.811 151.275 264.441 150.508 264.892L151.523 266.616ZM154.115 263.928L155.874 264.879C156.702 263.347 157.075 261.598 157.075 259.704H155.075H153.075C153.075 261.074 152.807 262.141 152.355 262.977L154.115 263.928ZM173.158 252.504L174.913 253.464L174.919 253.452L173.158 252.504ZM177.814 247.704L178.797 249.446L178.808 249.44L178.818 249.434L177.814 247.704ZM192.79 248.472L191.564 250.052L191.577 250.062L191.59 250.072L192.79 248.472ZM197.158 255.384V257.384H199.713L199.099 254.904L197.158 255.384ZM189.91 255.384L188.012 256.016L188.468 257.384H189.91V255.384ZM187.942 252.696L186.742 254.296L186.774 254.32L186.806 254.342L187.942 252.696ZM180.022 253.8L181.573 255.063L181.58 255.054L181.587 255.045L180.022 253.8ZM180.022 265.608L178.457 266.853L178.464 266.862L178.471 266.871L180.022 265.608ZM189.91 264.024V262.024H188.48L188.017 263.377L189.91 264.024ZM197.158 264.024L199.095 264.519L199.733 262.024H197.158V264.024ZM192.79 270.888L194.019 272.465L194.019 272.465L192.79 270.888ZM177.814 271.752L176.809 273.482L176.82 273.488L176.831 273.494L177.814 271.752ZM173.158 266.952L171.397 267.9L171.403 267.912L173.158 266.952ZM171.478 259.704H173.478C173.478 257.227 173.98 255.169 174.912 253.464L173.158 252.504L171.403 251.544C170.096 253.935 169.478 256.677 169.478 259.704H171.478ZM173.158 252.504L174.919 253.452C175.867 251.692 177.154 250.373 178.797 249.446L177.814 247.704L176.831 245.962C174.505 247.275 172.689 249.156 171.397 251.556L173.158 252.504ZM177.814 247.704L178.818 249.434C180.463 248.479 182.381 247.976 184.63 247.976V245.976V243.976C181.759 243.976 179.133 244.625 176.809 245.974L177.814 247.704ZM184.63 245.976V247.976C187.58 247.976 189.841 248.715 191.564 250.052L192.79 248.472L194.016 246.892C191.451 244.901 188.272 243.976 184.63 243.976V245.976ZM192.79 248.472L191.59 250.072C193.35 251.392 194.576 253.275 195.216 255.864L197.158 255.384L199.099 254.904C198.267 251.541 196.581 248.816 193.99 246.872L192.79 248.472ZM197.158 255.384V253.384H189.91V255.384V257.384H197.158V255.384ZM189.91 255.384L191.807 254.752C191.297 253.222 190.391 251.955 189.077 251.05L187.942 252.696L186.806 254.342C187.349 254.717 187.754 255.242 188.012 256.016L189.91 255.384ZM187.942 252.696L189.142 251.096C187.835 250.116 186.269 249.688 184.582 249.688V251.688V253.688C185.582 253.688 186.257 253.932 186.742 254.296L187.942 252.696ZM184.582 251.688V249.688C182.099 249.688 179.984 250.634 178.457 252.555L180.022 253.8L181.587 255.045C182.299 254.15 183.224 253.688 184.582 253.688V251.688ZM180.022 253.8L178.471 252.537C176.956 254.399 176.342 256.883 176.342 259.704H178.342H180.342C180.342 257.405 180.848 255.953 181.573 255.063L180.022 253.8ZM178.342 259.704H176.342C176.342 262.504 176.96 264.972 178.457 266.853L180.022 265.608L181.587 264.363C180.843 263.428 180.342 261.96 180.342 259.704H178.342ZM180.022 265.608L178.471 266.871C180.005 268.755 182.117 269.672 184.582 269.672V267.672V265.672C183.207 265.672 182.279 265.213 181.573 264.345L180.022 265.608ZM184.582 267.672V269.672C186.239 269.672 187.785 269.3 189.084 268.41C190.392 267.514 191.274 266.214 191.802 264.671L189.91 264.024L188.017 263.377C187.713 264.266 187.291 264.79 186.824 265.11C186.347 265.436 185.645 265.672 184.582 265.672V267.672ZM189.91 264.024V266.024H197.158V264.024V262.024H189.91V264.024ZM197.158 264.024L195.22 263.529C194.585 266.015 193.359 267.909 191.56 269.311L192.79 270.888L194.019 272.465C196.572 270.475 198.259 267.793 199.095 264.519L197.158 264.024ZM192.79 270.888L191.56 269.311C189.797 270.685 187.533 271.432 184.63 271.432V273.432V275.432C188.255 275.432 191.431 274.483 194.019 272.465L192.79 270.888ZM184.63 273.432V271.432C182.371 271.432 180.445 270.941 178.797 270.01L177.814 271.752L176.831 273.494C179.15 274.803 181.769 275.432 184.63 275.432V273.432ZM177.814 271.752L178.818 270.022C177.156 269.057 175.861 267.726 174.912 265.992L173.158 266.952L171.403 267.912C172.695 270.274 174.504 272.143 176.809 273.482L177.814 271.752ZM173.158 266.952L174.919 266.004C173.98 264.26 173.478 262.18 173.478 259.704H171.478H169.478C169.478 262.732 170.096 265.484 171.397 267.9L173.158 266.952ZM222.625 273L221.06 274.246L221.661 275H222.625V273ZM213.601 261.672L215.165 260.426L211.601 255.951V261.672H213.601ZM213.601 273V275H215.601V273H213.601ZM206.881 273H204.881V275H206.881V273ZM206.881 237.48V235.48H204.881V237.48H206.881ZM213.601 237.48H215.601V235.48H213.601V237.48ZM213.601 257.688H211.601V263.437L215.169 258.929L213.601 257.688ZM222.529 246.408V244.408H221.561L220.961 245.167L222.529 246.408ZM231.265 246.408L232.768 247.727L235.681 244.408H231.265V246.408ZM219.553 259.752L218.05 258.433L216.883 259.762L218.06 261.083L219.553 259.752ZM231.361 273V275H235.822L232.854 271.669L231.361 273ZM222.625 273L224.189 271.754L215.165 260.426L213.601 261.672L212.036 262.918L221.06 274.246L222.625 273ZM213.601 261.672H211.601V273H213.601H215.601V261.672H213.601ZM213.601 273V271H206.881V273V275H213.601V273ZM206.881 273H208.881V237.48H206.881H204.881V273H206.881ZM206.881 237.48V239.48H213.601V237.48V235.48H206.881V237.48ZM213.601 237.48H211.601V257.688H213.601H215.601V237.48H213.601ZM213.601 257.688L215.169 258.929L224.097 247.649L222.529 246.408L220.961 245.167L212.033 256.447L213.601 257.688ZM222.529 246.408V248.408H231.265V246.408V244.408H222.529V246.408ZM231.265 246.408L229.762 245.089L218.05 258.433L219.553 259.752L221.056 261.071L232.768 247.727L231.265 246.408ZM219.553 259.752L218.06 261.083L229.868 274.331L231.361 273L232.854 271.669L221.046 258.421L219.553 259.752ZM231.361 273V271H222.625V273V275H231.361V273Z" fill="black" mask="url(#path-1-outside-1_40_160)"/>
<g filter="url(#filter0_d_40_160)">
<rect x="11" width="210" height="210" rx="31" fill="url(#paint1_linear_40_160)"/>
<rect x="12" y="1" width="208" height="208" rx="30" stroke="black" stroke-width="2"/>
</g>
<rect x="40" y="152.968" width="29" height="28.0323" rx="3" fill="url(#paint2_linear_40_160)"/>
<rect x="81" y="135.978" width="29" height="45.0215" rx="3" fill="url(#paint3_linear_40_160)"/>
<rect x="122" y="118.989" width="29" height="62.0108" rx="3" fill="url(#paint4_linear_40_160)"/>
<rect x="163" y="102" width="29" height="79" rx="3" fill="url(#paint5_linear_40_160)"/>
<g clip-path="url(#clip0_40_160)">
<path d="M115.5 32.5V109.5" stroke="url(#paint6_linear_40_160)" stroke-width="10" stroke-linecap="round" stroke-linejoin="round"/>
<path d="M132.792 46.5H106.854C103.644 46.5 100.565 47.7906 98.2952 50.0879C96.0253 52.3853 94.75 55.5011 94.75 58.75C94.75 61.9989 96.0253 65.1147 98.2952 67.4121C100.565 69.7094 103.644 71 106.854 71H124.146C127.356 71 130.435 72.2906 132.705 74.5879C134.975 76.8853 136.25 80.0011 136.25 83.25C136.25 86.4989 134.975 89.6147 132.705 91.9121C130.435 94.2094 127.356 95.5 124.146 95.5H94.75" stroke="url(#paint7_linear_40_160)" stroke-width="10" stroke-linecap="round" stroke-linejoin="round"/>
</g>
<defs>
<filter id="filter0_d_40_160" x="7" y="0" width="218" height="218" filterUnits="userSpaceOnUse" color-interpolation-filters="sRGB">
<feFlood flood-opacity="0" result="BackgroundImageFix"/>
<feColorMatrix in="SourceAlpha" type="matrix" values="0 0 0 0 0 0 0 0 0 0 0 0 0 0 0 0 0 0 127 0" result="hardAlpha"/>
<feOffset dy="4"/>
<feGaussianBlur stdDeviation="2"/>
<feComposite in2="hardAlpha" operator="out"/>
<feColorMatrix type="matrix" values="0 0 0 0 0 0 0 0 0 0 0 0 0 0 0 0 0 0 0.25 0"/>
<feBlend mode="normal" in2="BackgroundImageFix" result="effect1_dropShadow_40_160"/>
<feBlend mode="normal" in="SourceGraphic" in2="effect1_dropShadow_40_160" result="shape"/>
</filter>
<linearGradient id="paint0_linear_40_160" x1="116" y1="220" x2="116" y2="292" gradientUnits="userSpaceOnUse">
<stop stop-color="white"/>
<stop offset="1" stop-color="#D9D9D9"/>
</linearGradient>
<linearGradient id="paint1_linear_40_160" x1="116" y1="0" x2="116" y2="210" gradientUnits="userSpaceOnUse">
<stop offset="0.0432692" stop-color="#396604"/>
<stop offset="0.423077" stop-color="#315704"/>
<stop offset="0.913462" stop-color="#284703"/>
</linearGradient>
<linearGradient id="paint2_linear_40_160" x1="54.5" y1="152.968" x2="54.5" y2="181" gradientUnits="userSpaceOnUse">
<stop stop-color="white"/>
<stop offset="1" stop-color="#D9D9D9"/>
</linearGradient>
<linearGradient id="paint3_linear_40_160" x1="95.5" y1="135.978" x2="95.5" y2="181" gradientUnits="userSpaceOnUse">
<stop stop-color="white"/>
<stop offset="1" stop-color="#D9D9D9"/>
</linearGradient>
<linearGradient id="paint4_linear_40_160" x1="136.5" y1="118.989" x2="136.5" y2="181" gradientUnits="userSpaceOnUse">
<stop stop-color="white"/>
<stop offset="1" stop-color="#D9D9D9"/>
</linearGradient>
<linearGradient id="paint5_linear_40_160" x1="177.5" y1="102" x2="177.5" y2="181" gradientUnits="userSpaceOnUse">
<stop stop-color="white"/>
<stop offset="1" stop-color="#D9D9D9"/>
</linearGradient>
<linearGradient id="paint6_linear_40_160" x1="116" y1="32.5" x2="116" y2="109.5" gradientUnits="userSpaceOnUse">
<stop stop-color="white"/>
<stop offset="1" stop-color="#D9D9D9"/>
</linearGradient>
<linearGradient id="paint7_linear_40_160" x1="115.5" y1="46.5" x2="115.5" y2="95.5" gradientUnits="userSpaceOnUse">
<stop stop-color="white"/>
<stop offset="1" stop-color="#D9D9D9"/>
</linearGradient>
<clipPath id="clip0_40_160">
<rect width="83" height="84" fill="white" transform="translate(74 29)"/>
</clipPath>
</defs>
</svg>
