<svg width="778" height="241" viewBox="0 0 778 241" fill="none" xmlns="http://www.w3.org/2000/svg">
<mask id="path-1-outside-1_40_107" maskUnits="userSpaceOnUse" x="234" y="85" width="544" height="109" fill="black">
<rect fill="white" x="234" y="85" width="544" height="109"/>
<path d="M295.432 100.144V117.68H258.824V136.624H286.216V153.648H258.824V190H236.936V100.144H295.432ZM317.944 111.152C314.104 111.152 310.947 110.043 308.472 107.824C306.083 105.52 304.888 102.704 304.888 99.376C304.888 95.9627 306.083 93.1467 308.472 90.928C310.947 88.624 314.104 87.472 317.944 87.472C321.699 87.472 324.771 88.624 327.16 90.928C329.635 93.1467 330.872 95.9627 330.872 99.376C330.872 102.704 329.635 105.52 327.16 107.824C324.771 110.043 321.699 111.152 317.944 111.152ZM328.824 118.576V190H306.936V118.576H328.824ZM388.206 117.808C396.569 117.808 403.225 120.539 408.174 126C413.209 131.376 415.726 138.8 415.726 148.272V190H393.966V151.216C393.966 146.437 392.729 142.725 390.254 140.08C387.779 137.435 384.451 136.112 380.27 136.112C376.089 136.112 372.761 137.435 370.286 140.08C367.811 142.725 366.574 146.437 366.574 151.216V190H344.686V118.576H366.574V128.048C368.793 124.891 371.779 122.416 375.534 120.624C379.289 118.747 383.513 117.808 388.206 117.808ZM470.744 171.44V190H459.608C451.672 190 445.485 188.08 441.048 184.24C436.611 180.315 434.392 173.957 434.392 165.168V136.752H425.688V118.576H434.392V101.168H456.28V118.576H470.616V136.752H456.28V165.424C456.28 167.557 456.792 169.093 457.816 170.032C458.84 170.971 460.547 171.44 462.936 171.44H470.744ZM504.824 130.48C507.384 126.555 510.584 123.483 514.424 121.264C518.264 118.96 522.531 117.808 527.224 117.808V140.976H521.208C515.747 140.976 511.651 142.171 508.92 144.56C506.189 146.864 504.824 150.96 504.824 156.848V190H482.936V118.576H504.824V130.48ZM533.334 154.16C533.334 146.821 534.699 140.379 537.43 134.832C540.246 129.285 544.043 125.019 548.822 122.032C553.601 119.045 558.934 117.552 564.822 117.552C569.857 117.552 574.251 118.576 578.006 120.624C581.846 122.672 584.79 125.36 586.838 128.688V118.576H608.726V190H586.838V179.888C584.705 183.216 581.718 185.904 577.878 187.952C574.123 190 569.729 191.024 564.694 191.024C558.891 191.024 553.601 189.531 548.822 186.544C544.043 183.472 540.246 179.163 537.43 173.616C534.699 167.984 533.334 161.499 533.334 154.16ZM586.838 154.288C586.838 148.827 585.302 144.517 582.23 141.36C579.243 138.203 575.574 136.624 571.222 136.624C566.87 136.624 563.158 138.203 560.086 141.36C557.099 144.432 555.606 148.699 555.606 154.16C555.606 159.621 557.099 163.973 560.086 167.216C563.158 170.373 566.87 171.952 571.222 171.952C575.574 171.952 579.243 170.373 582.23 167.216C585.302 164.059 586.838 159.749 586.838 154.288ZM620.209 154.288C620.209 146.864 621.702 140.379 624.689 134.832C627.761 129.285 631.985 125.019 637.361 122.032C642.822 119.045 649.052 117.552 656.049 117.552C665.009 117.552 672.476 119.899 678.449 124.592C684.508 129.285 688.476 135.899 690.353 144.432H667.057C665.094 138.971 661.297 136.24 655.665 136.24C651.654 136.24 648.454 137.819 646.065 140.976C643.676 144.048 642.481 148.485 642.481 154.288C642.481 160.091 643.676 164.571 646.065 167.728C648.454 170.8 651.654 172.336 655.665 172.336C661.297 172.336 665.094 169.605 667.057 164.144H690.353C688.476 172.507 684.508 179.077 678.449 183.856C672.39 188.635 664.924 191.024 656.049 191.024C649.052 191.024 642.822 189.531 637.361 186.544C631.985 183.557 627.761 179.291 624.689 173.744C621.702 168.197 620.209 161.712 620.209 154.288ZM745.709 190L723.949 160.048V190H702.061V95.28H723.949V147.632L745.581 118.576H772.589L742.893 154.416L772.845 190H745.709Z"/>
</mask>
<path d="M295.432 100.144V117.68H258.824V136.624H286.216V153.648H258.824V190H236.936V100.144H295.432ZM317.944 111.152C314.104 111.152 310.947 110.043 308.472 107.824C306.083 105.52 304.888 102.704 304.888 99.376C304.888 95.9627 306.083 93.1467 308.472 90.928C310.947 88.624 314.104 87.472 317.944 87.472C321.699 87.472 324.771 88.624 327.16 90.928C329.635 93.1467 330.872 95.9627 330.872 99.376C330.872 102.704 329.635 105.52 327.16 107.824C324.771 110.043 321.699 111.152 317.944 111.152ZM328.824 118.576V190H306.936V118.576H328.824ZM388.206 117.808C396.569 117.808 403.225 120.539 408.174 126C413.209 131.376 415.726 138.8 415.726 148.272V190H393.966V151.216C393.966 146.437 392.729 142.725 390.254 140.08C387.779 137.435 384.451 136.112 380.27 136.112C376.089 136.112 372.761 137.435 370.286 140.08C367.811 142.725 366.574 146.437 366.574 151.216V190H344.686V118.576H366.574V128.048C368.793 124.891 371.779 122.416 375.534 120.624C379.289 118.747 383.513 117.808 388.206 117.808ZM470.744 171.44V190H459.608C451.672 190 445.485 188.08 441.048 184.24C436.611 180.315 434.392 173.957 434.392 165.168V136.752H425.688V118.576H434.392V101.168H456.28V118.576H470.616V136.752H456.28V165.424C456.28 167.557 456.792 169.093 457.816 170.032C458.84 170.971 460.547 171.44 462.936 171.44H470.744ZM504.824 130.48C507.384 126.555 510.584 123.483 514.424 121.264C518.264 118.96 522.531 117.808 527.224 117.808V140.976H521.208C515.747 140.976 511.651 142.171 508.92 144.56C506.189 146.864 504.824 150.96 504.824 156.848V190H482.936V118.576H504.824V130.48ZM533.334 154.16C533.334 146.821 534.699 140.379 537.43 134.832C540.246 129.285 544.043 125.019 548.822 122.032C553.601 119.045 558.934 117.552 564.822 117.552C569.857 117.552 574.251 118.576 578.006 120.624C581.846 122.672 584.79 125.36 586.838 128.688V118.576H608.726V190H586.838V179.888C584.705 183.216 581.718 185.904 577.878 187.952C574.123 190 569.729 191.024 564.694 191.024C558.891 191.024 553.601 189.531 548.822 186.544C544.043 183.472 540.246 179.163 537.43 173.616C534.699 167.984 533.334 161.499 533.334 154.16ZM586.838 154.288C586.838 148.827 585.302 144.517 582.23 141.36C579.243 138.203 575.574 136.624 571.222 136.624C566.87 136.624 563.158 138.203 560.086 141.36C557.099 144.432 555.606 148.699 555.606 154.16C555.606 159.621 557.099 163.973 560.086 167.216C563.158 170.373 566.87 171.952 571.222 171.952C575.574 171.952 579.243 170.373 582.23 167.216C585.302 164.059 586.838 159.749 586.838 154.288ZM620.209 154.288C620.209 146.864 621.702 140.379 624.689 134.832C627.761 129.285 631.985 125.019 637.361 122.032C642.822 119.045 649.052 117.552 656.049 117.552C665.009 117.552 672.476 119.899 678.449 124.592C684.508 129.285 688.476 135.899 690.353 144.432H667.057C665.094 138.971 661.297 136.24 655.665 136.24C651.654 136.24 648.454 137.819 646.065 140.976C643.676 144.048 642.481 148.485 642.481 154.288C642.481 160.091 643.676 164.571 646.065 167.728C648.454 170.8 651.654 172.336 655.665 172.336C661.297 172.336 665.094 169.605 667.057 164.144H690.353C688.476 172.507 684.508 179.077 678.449 183.856C672.39 188.635 664.924 191.024 656.049 191.024C649.052 191.024 642.822 189.531 637.361 186.544C631.985 183.557 627.761 179.291 624.689 173.744C621.702 168.197 620.209 161.712 620.209 154.288ZM745.709 190L723.949 160.048V190H702.061V95.28H723.949V147.632L745.581 118.576H772.589L742.893 154.416L772.845 190H745.709Z" fill="url(#paint0_linear_40_107)"/>
<path d="M295.432 100.144H297.432V98.144H295.432V100.144ZM295.432 117.68V119.68H297.432V117.68H295.432ZM258.824 117.68V115.68H256.824V117.68H258.824ZM258.824 136.624H256.824V138.624H258.824V136.624ZM286.216 136.624H288.216V134.624H286.216V136.624ZM286.216 153.648V155.648H288.216V153.648H286.216ZM258.824 153.648V151.648H256.824V153.648H258.824ZM258.824 190V192H260.824V190H258.824ZM236.936 190H234.936V192H236.936V190ZM236.936 100.144V98.144H234.936V100.144H236.936ZM295.432 100.144H293.432V117.68H295.432H297.432V100.144H295.432ZM295.432 117.68V115.68H258.824V117.68V119.68H295.432V117.68ZM258.824 117.68H256.824V136.624H258.824H260.824V117.68H258.824ZM258.824 136.624V138.624H286.216V136.624V134.624H258.824V136.624ZM286.216 136.624H284.216V153.648H286.216H288.216V136.624H286.216ZM286.216 153.648V151.648H258.824V153.648V155.648H286.216V153.648ZM258.824 153.648H256.824V190H258.824H260.824V153.648H258.824ZM258.824 190V188H236.936V190V192H258.824V190ZM236.936 190H238.936V100.144H236.936H234.936V190H236.936ZM236.936 100.144V102.144H295.432V100.144V98.144H236.936V100.144ZM308.472 107.824L307.084 109.264L307.11 109.289L307.137 109.313L308.472 107.824ZM308.472 90.928L309.833 92.3936L309.835 92.3918L308.472 90.928ZM327.16 90.928L325.772 92.3677L325.798 92.3929L325.825 92.4171L327.16 90.928ZM327.16 107.824L328.521 109.29L328.523 109.288L327.16 107.824ZM328.824 118.576H330.824V116.576H328.824V118.576ZM328.824 190V192H330.824V190H328.824ZM306.936 190H304.936V192H306.936V190ZM306.936 118.576V116.576H304.936V118.576H306.936ZM317.944 111.152V109.152C314.515 109.152 311.858 108.174 309.807 106.335L308.472 107.824L307.137 109.313C310.035 111.911 313.693 113.152 317.944 113.152V111.152ZM308.472 107.824L309.86 106.384C307.863 104.458 306.888 102.163 306.888 99.376H304.888H302.888C302.888 103.245 304.302 106.582 307.084 109.264L308.472 107.824ZM304.888 99.376H306.888C306.888 96.4894 307.872 94.2143 309.833 92.3936L308.472 90.928L307.111 89.4624C304.293 92.079 302.888 95.4359 302.888 99.376H304.888ZM308.472 90.928L309.835 92.3918C311.889 90.4796 314.536 89.472 317.944 89.472V87.472V85.472C313.672 85.472 310.005 86.7683 307.109 89.4642L308.472 90.928ZM317.944 87.472V89.472C321.254 89.472 323.805 90.4712 325.772 92.3677L327.16 90.928L328.548 89.4883C325.736 86.7768 322.143 85.472 317.944 85.472V87.472ZM327.16 90.928L325.825 92.4171C327.864 94.2449 328.872 96.5135 328.872 99.376H330.872H332.872C332.872 95.4118 331.406 92.0484 328.495 89.4389L327.16 90.928ZM330.872 99.376H328.872C328.872 102.139 327.873 104.428 325.797 106.36L327.16 107.824L328.523 109.288C331.396 106.612 332.872 103.269 332.872 99.376H330.872ZM327.16 107.824L325.799 106.358C323.836 108.182 321.276 109.152 317.944 109.152V111.152V113.152C322.121 113.152 325.706 111.904 328.521 109.29L327.16 107.824ZM328.824 118.576H326.824V190H328.824H330.824V118.576H328.824ZM328.824 190V188H306.936V190V192H328.824V190ZM306.936 190H308.936V118.576H306.936H304.936V190H306.936ZM306.936 118.576V120.576H328.824V118.576V116.576H306.936V118.576ZM408.174 126L406.692 127.343L406.703 127.355L406.714 127.367L408.174 126ZM415.726 190V192H417.726V190H415.726ZM393.966 190H391.966V192H393.966V190ZM390.254 140.08L388.793 141.446L388.793 141.446L390.254 140.08ZM370.286 140.08L371.747 141.446L371.747 141.446L370.286 140.08ZM366.574 190V192H368.574V190H366.574ZM344.686 190H342.686V192H344.686V190ZM344.686 118.576V116.576H342.686V118.576H344.686ZM366.574 118.576H368.574V116.576H366.574V118.576ZM366.574 128.048H364.574V134.373L368.21 129.198L366.574 128.048ZM375.534 120.624L376.395 122.429L376.412 122.421L376.428 122.413L375.534 120.624ZM388.206 117.808V119.808C396.088 119.808 402.175 122.359 406.692 127.343L408.174 126L409.656 124.657C404.274 118.719 397.049 115.808 388.206 115.808V117.808ZM408.174 126L406.714 127.367C411.311 132.276 413.726 139.157 413.726 148.272H415.726H417.726C417.726 138.443 415.106 130.476 409.634 124.633L408.174 126ZM415.726 148.272H413.726V190H415.726H417.726V148.272H415.726ZM415.726 190V188H393.966V190V192H415.726V190ZM393.966 190H395.966V151.216H393.966H391.966V190H393.966ZM393.966 151.216H395.966C395.966 146.096 394.635 141.835 391.715 138.714L390.254 140.08L388.793 141.446C390.823 143.615 391.966 146.778 391.966 151.216H393.966ZM390.254 140.08L391.715 138.714C388.802 135.601 384.911 134.112 380.27 134.112V136.112V138.112C383.991 138.112 386.756 139.269 388.793 141.446L390.254 140.08ZM380.27 136.112V134.112C375.629 134.112 371.738 135.601 368.825 138.714L370.286 140.08L371.747 141.446C373.784 139.269 376.549 138.112 380.27 138.112V136.112ZM370.286 140.08L368.825 138.714C365.905 141.835 364.574 146.096 364.574 151.216H366.574H368.574C368.574 146.778 369.717 143.615 371.747 141.446L370.286 140.08ZM366.574 151.216H364.574V190H366.574H368.574V151.216H366.574ZM366.574 190V188H344.686V190V192H366.574V190ZM344.686 190H346.686V118.576H344.686H342.686V190H344.686ZM344.686 118.576V120.576H366.574V118.576V116.576H344.686V118.576ZM366.574 118.576H364.574V128.048H366.574H368.574V118.576H366.574ZM366.574 128.048L368.21 129.198C370.216 126.344 372.926 124.085 376.395 122.429L375.534 120.624L374.673 118.819C370.633 120.747 367.369 123.438 364.938 126.898L366.574 128.048ZM375.534 120.624L376.428 122.413C379.874 120.69 383.786 119.808 388.206 119.808V117.808V115.808C383.239 115.808 378.703 116.803 374.64 118.835L375.534 120.624ZM470.744 171.44H472.744V169.44H470.744V171.44ZM470.744 190V192H472.744V190H470.744ZM441.048 184.24L439.723 185.738L439.731 185.745L439.739 185.752L441.048 184.24ZM434.392 136.752H436.392V134.752H434.392V136.752ZM425.688 136.752H423.688V138.752H425.688V136.752ZM425.688 118.576V116.576H423.688V118.576H425.688ZM434.392 118.576V120.576H436.392V118.576H434.392ZM434.392 101.168V99.168H432.392V101.168H434.392ZM456.28 101.168H458.28V99.168H456.28V101.168ZM456.28 118.576H454.28V120.576H456.28V118.576ZM470.616 118.576H472.616V116.576H470.616V118.576ZM470.616 136.752V138.752H472.616V136.752H470.616ZM456.28 136.752V134.752H454.28V136.752H456.28ZM457.816 170.032L456.465 171.506L456.465 171.506L457.816 170.032ZM470.744 171.44H468.744V190H470.744H472.744V171.44H470.744ZM470.744 190V188H459.608V190V192H470.744V190ZM459.608 190V188C451.982 188 446.32 186.157 442.357 182.728L441.048 184.24L439.739 185.752C444.651 190.003 451.362 192 459.608 192V190ZM441.048 184.24L442.373 182.742C438.538 179.349 436.392 173.665 436.392 165.168H434.392H432.392C432.392 174.25 434.684 181.28 439.723 185.738L441.048 184.24ZM434.392 165.168H436.392V136.752H434.392H432.392V165.168H434.392ZM434.392 136.752V134.752H425.688V136.752V138.752H434.392V136.752ZM425.688 136.752H427.688V118.576H425.688H423.688V136.752H425.688ZM425.688 118.576V120.576H434.392V118.576V116.576H425.688V118.576ZM434.392 118.576H436.392V101.168H434.392H432.392V118.576H434.392ZM434.392 101.168V103.168H456.28V101.168V99.168H434.392V101.168ZM456.28 101.168H454.28V118.576H456.28H458.28V101.168H456.28ZM456.28 118.576V120.576H470.616V118.576V116.576H456.28V118.576ZM470.616 118.576H468.616V136.752H470.616H472.616V118.576H470.616ZM470.616 136.752V134.752H456.28V136.752V138.752H470.616V136.752ZM456.28 136.752H454.28V165.424H456.28H458.28V136.752H456.28ZM456.28 165.424H454.28C454.28 167.82 454.85 170.026 456.465 171.506L457.816 170.032L459.167 168.558C458.734 168.161 458.28 167.295 458.28 165.424H456.28ZM457.816 170.032L456.465 171.506C458.045 172.955 460.378 173.44 462.936 173.44V171.44V169.44C460.715 169.44 459.635 168.986 459.167 168.558L457.816 170.032ZM462.936 171.44V173.44H470.744V171.44V169.44H462.936V171.44ZM504.824 130.48H502.824V137.208L506.499 131.573L504.824 130.48ZM514.424 121.264L515.425 122.996L515.439 122.987L515.453 122.979L514.424 121.264ZM527.224 117.808H529.224V115.808H527.224V117.808ZM527.224 140.976V142.976H529.224V140.976H527.224ZM508.92 144.56L510.21 146.089L510.223 146.077L510.237 146.065L508.92 144.56ZM504.824 190V192H506.824V190H504.824ZM482.936 190H480.936V192H482.936V190ZM482.936 118.576V116.576H480.936V118.576H482.936ZM504.824 118.576H506.824V116.576H504.824V118.576ZM504.824 130.48L506.499 131.573C508.898 127.895 511.872 125.048 515.425 122.996L514.424 121.264L513.423 119.532C509.296 121.917 505.87 125.214 503.149 129.387L504.824 130.48ZM514.424 121.264L515.453 122.979C518.967 120.871 522.875 119.808 527.224 119.808V117.808V115.808C522.186 115.808 517.561 117.049 513.395 119.549L514.424 121.264ZM527.224 117.808H525.224V140.976H527.224H529.224V117.808H527.224ZM527.224 140.976V138.976H521.208V140.976V142.976H527.224V140.976ZM521.208 140.976V138.976C515.499 138.976 510.844 140.219 507.603 143.055L508.92 144.56L510.237 146.065C512.457 144.122 515.994 142.976 521.208 142.976V140.976ZM508.92 144.56L507.63 143.031C504.226 145.904 502.824 150.743 502.824 156.848H504.824H506.824C506.824 151.177 508.152 147.824 510.21 146.089L508.92 144.56ZM504.824 156.848H502.824V190H504.824H506.824V156.848H504.824ZM504.824 190V188H482.936V190V192H504.824V190ZM482.936 190H484.936V118.576H482.936H480.936V190H482.936ZM482.936 118.576V120.576H504.824V118.576V116.576H482.936V118.576ZM504.824 118.576H502.824V130.48H504.824H506.824V118.576H504.824ZM537.43 134.832L535.647 133.927L535.641 133.938L535.636 133.949L537.43 134.832ZM548.822 122.032L549.882 123.728L549.882 123.728L548.822 122.032ZM578.006 120.624L577.048 122.38L577.057 122.384L577.065 122.389L578.006 120.624ZM586.838 128.688L585.135 129.736L588.838 135.754V128.688H586.838ZM586.838 118.576V116.576H584.838V118.576H586.838ZM608.726 118.576H610.726V116.576H608.726V118.576ZM608.726 190V192H610.726V190H608.726ZM586.838 190H584.838V192H586.838V190ZM586.838 179.888H588.838V173.062L585.154 178.809L586.838 179.888ZM577.878 187.952L576.937 186.187L576.929 186.192L576.92 186.196L577.878 187.952ZM548.822 186.544L547.74 188.226L547.751 188.233L547.762 188.24L548.822 186.544ZM537.43 173.616L535.63 174.489L535.638 174.505L535.647 174.521L537.43 173.616ZM582.23 141.36L580.777 142.734L580.787 142.745L580.797 142.755L582.23 141.36ZM560.086 141.36L558.653 139.965L558.652 139.966L560.086 141.36ZM560.086 167.216L558.615 168.571L558.633 168.591L558.653 168.611L560.086 167.216ZM582.23 167.216L580.797 165.821L580.787 165.831L580.777 165.842L582.23 167.216ZM533.334 154.16H535.334C535.334 147.071 536.652 140.94 539.224 135.715L537.43 134.832L535.636 133.949C532.747 139.817 531.334 146.572 531.334 154.16H533.334ZM537.43 134.832L539.213 135.737C541.882 130.48 545.443 126.502 549.882 123.728L548.822 122.032L547.762 120.336C542.643 123.535 538.61 128.09 535.647 133.927L537.43 134.832ZM548.822 122.032L549.882 123.728C554.328 120.949 559.291 119.552 564.822 119.552V117.552V115.552C558.577 115.552 552.873 117.142 547.762 120.336L548.822 122.032ZM564.822 117.552V119.552C569.581 119.552 573.635 120.518 577.048 122.38L578.006 120.624L578.964 118.868C574.867 116.634 570.132 115.552 564.822 115.552V117.552ZM578.006 120.624L577.065 122.389C580.628 124.289 583.293 126.744 585.135 129.736L586.838 128.688L588.541 127.64C586.287 123.976 583.064 121.055 578.947 118.859L578.006 120.624ZM586.838 128.688H588.838V118.576H586.838H584.838V128.688H586.838ZM586.838 118.576V120.576H608.726V118.576V116.576H586.838V118.576ZM608.726 118.576H606.726V190H608.726H610.726V118.576H608.726ZM608.726 190V188H586.838V190V192H608.726V190ZM586.838 190H588.838V179.888H586.838H584.838V190H586.838ZM586.838 179.888L585.154 178.809C583.224 181.82 580.506 184.284 576.937 186.187L577.878 187.952L578.819 189.717C582.93 187.524 586.185 184.612 588.522 180.967L586.838 179.888ZM577.878 187.952L576.92 186.196C573.507 188.058 569.453 189.024 564.694 189.024V191.024V193.024C570.004 193.024 574.739 191.942 578.836 189.708L577.878 187.952ZM564.694 191.024V189.024C559.254 189.024 554.333 187.63 549.882 184.848L548.822 186.544L547.762 188.24C552.868 191.431 558.528 193.024 564.694 193.024V191.024ZM548.822 186.544L549.904 184.862C545.452 182 541.884 177.972 539.213 172.711L537.43 173.616L535.647 174.521C538.608 180.354 542.635 184.944 547.74 188.226L548.822 186.544ZM537.43 173.616L539.23 172.743C536.652 167.427 535.334 161.248 535.334 154.16H533.334H531.334C531.334 161.749 532.747 168.541 535.63 174.489L537.43 173.616ZM586.838 154.288H588.838C588.838 148.437 587.181 143.581 583.663 139.965L582.23 141.36L580.797 142.755C583.423 145.454 584.838 149.216 584.838 154.288H586.838ZM582.23 141.36L583.683 139.986C580.318 136.428 576.123 134.624 571.222 134.624V136.624V138.624C575.025 138.624 578.169 139.977 580.777 142.734L582.23 141.36ZM571.222 136.624V134.624C566.323 134.624 562.096 136.426 558.653 139.965L560.086 141.36L561.519 142.755C564.22 139.979 567.417 138.624 571.222 138.624V136.624ZM560.086 141.36L558.652 139.966C555.21 143.506 553.606 148.327 553.606 154.16H555.606H557.606C557.606 149.07 558.989 145.358 561.52 142.754L560.086 141.36ZM555.606 154.16H553.606C553.606 159.998 555.212 164.876 558.615 168.571L560.086 167.216L561.557 165.861C558.987 163.071 557.606 159.245 557.606 154.16H555.606ZM560.086 167.216L558.653 168.611C562.096 172.15 566.323 173.952 571.222 173.952V171.952V169.952C567.417 169.952 564.22 168.597 561.519 165.821L560.086 167.216ZM571.222 171.952V173.952C576.123 173.952 580.318 172.148 583.683 168.59L582.23 167.216L580.777 165.842C578.169 168.599 575.025 169.952 571.222 169.952V171.952ZM582.23 167.216L583.663 168.611C587.181 164.995 588.838 160.139 588.838 154.288H586.838H584.838C584.838 159.36 583.423 163.122 580.797 165.821L582.23 167.216ZM624.689 134.832L622.939 133.863L622.934 133.873L622.928 133.884L624.689 134.832ZM637.361 122.032L636.401 120.277L636.39 120.284L637.361 122.032ZM678.449 124.592L677.213 126.165L677.224 126.173L678.449 124.592ZM690.353 144.432V146.432H692.841L692.306 144.002L690.353 144.432ZM667.057 144.432L665.175 145.108L665.651 146.432H667.057V144.432ZM646.065 140.976L647.644 142.204L647.652 142.193L647.66 142.183L646.065 140.976ZM646.065 167.728L644.47 168.935L644.478 168.945L644.486 168.956L646.065 167.728ZM667.057 164.144V162.144H665.651L665.175 163.468L667.057 164.144ZM690.353 164.144L692.304 164.582L692.852 162.144H690.353V164.144ZM678.449 183.856L677.21 182.286L677.21 182.286L678.449 183.856ZM637.361 186.544L636.39 188.292L636.401 188.299L637.361 186.544ZM624.689 173.744L622.928 174.692L622.934 174.703L622.939 174.713L624.689 173.744ZM620.209 154.288H622.209C622.209 147.136 623.646 140.987 626.45 135.78L624.689 134.832L622.928 133.884C619.759 139.77 618.209 146.592 618.209 154.288H620.209ZM624.689 134.832L626.439 135.801C629.335 130.571 633.294 126.579 638.332 123.78L637.361 122.032L636.39 120.284C630.676 123.458 626.187 128 622.939 133.863L624.689 134.832ZM637.361 122.032L638.321 123.787C643.453 120.98 649.345 119.552 656.049 119.552V117.552V115.552C648.759 115.552 642.192 117.111 636.401 120.277L637.361 122.032ZM656.049 117.552V119.552C664.645 119.552 671.653 121.796 677.213 126.165L678.449 124.592L679.685 123.019C673.298 118.002 665.373 115.552 656.049 115.552V117.552ZM678.449 124.592L677.224 126.173C682.861 130.54 686.608 136.718 688.4 144.862L690.353 144.432L692.306 144.002C690.343 135.08 686.154 128.031 679.674 123.011L678.449 124.592ZM690.353 144.432V142.432H667.057V144.432V146.432H690.353V144.432ZM667.057 144.432L668.939 143.756C667.854 140.737 666.203 138.317 663.905 136.664C661.601 135.008 658.813 134.24 655.665 134.24V136.24V138.24C658.149 138.24 660.076 138.838 661.569 139.912C663.068 140.989 664.297 142.666 665.175 145.108L667.057 144.432ZM655.665 136.24V134.24C651.037 134.24 647.243 136.105 644.47 139.769L646.065 140.976L647.66 142.183C649.665 139.533 652.271 138.24 655.665 138.24V136.24ZM646.065 140.976L644.486 139.748C641.719 143.307 640.481 148.25 640.481 154.288H642.481H644.481C644.481 148.721 645.633 144.789 647.644 142.204L646.065 140.976ZM642.481 154.288H640.481C640.481 160.332 641.721 165.302 644.47 168.935L646.065 167.728L647.66 166.521C645.631 163.84 644.481 159.85 644.481 154.288H642.481ZM646.065 167.728L644.486 168.956C647.268 172.532 651.059 174.336 655.665 174.336V172.336V170.336C652.25 170.336 649.641 169.068 647.644 166.5L646.065 167.728ZM655.665 172.336V174.336C658.813 174.336 661.601 173.568 663.905 171.912C666.203 170.259 667.854 167.839 668.939 164.82L667.057 164.144L665.175 163.468C664.297 165.91 663.068 167.587 661.569 168.664C660.076 169.738 658.149 170.336 655.665 170.336V172.336ZM667.057 164.144V166.144H690.353V164.144V162.144H667.057V164.144ZM690.353 164.144L688.402 163.706C686.613 171.673 682.868 177.823 677.21 182.286L678.449 183.856L679.688 185.426C686.147 180.332 690.338 173.34 692.304 164.582L690.353 164.144ZM678.449 183.856L677.21 182.286C671.556 186.745 664.545 189.024 656.049 189.024V191.024V193.024C665.302 193.024 673.224 190.524 679.688 185.426L678.449 183.856ZM656.049 191.024V189.024C649.345 189.024 643.453 187.596 638.321 184.789L637.361 186.544L636.401 188.299C642.192 191.465 648.759 193.024 656.049 193.024V191.024ZM637.361 186.544L638.332 184.796C633.294 181.997 629.335 178.005 626.439 172.775L624.689 173.744L622.939 174.713C626.187 180.576 630.676 185.118 636.39 188.292L637.361 186.544ZM624.689 173.744L626.45 172.796C623.646 167.589 622.209 161.44 622.209 154.288H620.209H618.209C618.209 161.984 619.759 168.806 622.928 174.692L624.689 173.744ZM745.709 190L744.091 191.176L744.69 192H745.709V190ZM723.949 160.048L725.567 158.872L721.949 153.892V160.048H723.949ZM723.949 190V192H725.949V190H723.949ZM702.061 190H700.061V192H702.061V190ZM702.061 95.28V93.28H700.061V95.28H702.061ZM723.949 95.28H725.949V93.28H723.949V95.28ZM723.949 147.632H721.949V153.668L725.553 148.826L723.949 147.632ZM745.581 118.576V116.576H744.577L743.977 117.382L745.581 118.576ZM772.589 118.576L774.129 119.852L776.843 116.576H772.589V118.576ZM742.893 154.416L741.353 153.14L740.287 154.426L741.363 155.704L742.893 154.416ZM772.845 190V192H777.143L774.375 188.712L772.845 190ZM745.709 190L747.327 188.824L725.567 158.872L723.949 160.048L722.331 161.224L744.091 191.176L745.709 190ZM723.949 160.048H721.949V190H723.949H725.949V160.048H723.949ZM723.949 190V188H702.061V190V192H723.949V190ZM702.061 190H704.061V95.28H702.061H700.061V190H702.061ZM702.061 95.28V97.28H723.949V95.28V93.28H702.061V95.28ZM723.949 95.28H721.949V147.632H723.949H725.949V95.28H723.949ZM723.949 147.632L725.553 148.826L747.185 119.77L745.581 118.576L743.977 117.382L722.345 146.438L723.949 147.632ZM745.581 118.576V120.576H772.589V118.576V116.576H745.581V118.576ZM772.589 118.576L771.049 117.3L741.353 153.14L742.893 154.416L744.433 155.692L774.129 119.852L772.589 118.576ZM742.893 154.416L741.363 155.704L771.315 191.288L772.845 190L774.375 188.712L744.423 153.128L742.893 154.416ZM772.845 190V188H745.709V190V192H772.845V190Z" fill="black" mask="url(#path-1-outside-1_40_107)"/>
<g filter="url(#filter0_d_40_107)">
<rect x="4" width="210" height="210" rx="31" fill="url(#paint1_linear_40_107)"/>
<rect x="5" y="1" width="208" height="208" rx="30" stroke="black" stroke-width="2"/>
</g>
<rect x="33" y="152.968" width="29" height="28.0323" rx="3" fill="url(#paint2_linear_40_107)"/>
<rect x="74" y="135.979" width="29" height="45.0215" rx="3" fill="url(#paint3_linear_40_107)"/>
<rect x="115" y="118.989" width="29" height="62.0108" rx="3" fill="url(#paint4_linear_40_107)"/>
<rect x="156" y="102" width="29" height="79" rx="3" fill="url(#paint5_linear_40_107)"/>
<g clip-path="url(#clip0_40_107)">
<path d="M108.5 32.5V109.5" stroke="url(#paint6_linear_40_107)" stroke-width="10" stroke-linecap="round" stroke-linejoin="round"/>
<path d="M125.792 46.5H99.8542C96.6439 46.5 93.5652 47.7906 91.2952 50.0879C89.0253 52.3853 87.75 55.5011 87.75 58.75C87.75 61.9989 89.0253 65.1147 91.2952 67.4121C93.5652 69.7094 96.6439 71 99.8542 71H117.146C120.356 71 123.435 72.2906 125.705 74.5879C127.975 76.8853 129.25 80.0011 129.25 83.25C129.25 86.4989 127.975 89.6147 125.705 91.9121C123.435 94.2094 120.356 95.5 117.146 95.5H87.75" stroke="url(#paint7_linear_40_107)" stroke-width="10" stroke-linecap="round" stroke-linejoin="round"/>
</g>
<defs>
<filter id="filter0_d_40_107" x="0" y="0" width="218" height="218" filterUnits="userSpaceOnUse" color-interpolation-filters="sRGB">
<feFlood flood-opacity="0" result="BackgroundImageFix"/>
<feColorMatrix in="SourceAlpha" type="matrix" values="0 0 0 0 0 0 0 0 0 0 0 0 0 0 0 0 0 0 127 0" result="hardAlpha"/>
<feOffset dy="4"/>
<feGaussianBlur stdDeviation="2"/>
<feComposite in2="hardAlpha" operator="out"/>
<feColorMatrix type="matrix" values="0 0 0 0 0 0 0 0 0 0 0 0 0 0 0 0 0 0 0.25 0"/>
<feBlend mode="normal" in2="BackgroundImageFix" result="effect1_dropShadow_40_107"/>
<feBlend mode="normal" in="SourceGraphic" in2="effect1_dropShadow_40_107" result="shape"/>
</filter>
<linearGradient id="paint0_linear_40_107" x1="501.5" y1="49" x2="501.5" y2="241" gradientUnits="userSpaceOnUse">
<stop offset="0.120192" stop-color="#62AD07"/>
<stop offset="0.889423" stop-color="#1A2E02"/>
</linearGradient>
<linearGradient id="paint1_linear_40_107" x1="109" y1="0" x2="109" y2="210" gradientUnits="userSpaceOnUse">
<stop offset="0.0432692" stop-color="#396604"/>
<stop offset="0.423077" stop-color="#315704"/>
<stop offset="0.913462" stop-color="#284703"/>
</linearGradient>
<linearGradient id="paint2_linear_40_107" x1="47.5" y1="152.968" x2="47.5" y2="181" gradientUnits="userSpaceOnUse">
<stop stop-color="white"/>
<stop offset="1" stop-color="#D9D9D9"/>
</linearGradient>
<linearGradient id="paint3_linear_40_107" x1="88.5" y1="135.979" x2="88.5" y2="181" gradientUnits="userSpaceOnUse">
<stop stop-color="white"/>
<stop offset="1" stop-color="#D9D9D9"/>
</linearGradient>
<linearGradient id="paint4_linear_40_107" x1="129.5" y1="118.989" x2="129.5" y2="181" gradientUnits="userSpaceOnUse">
<stop stop-color="white"/>
<stop offset="1" stop-color="#D9D9D9"/>
</linearGradient>
<linearGradient id="paint5_linear_40_107" x1="170.5" y1="102" x2="170.5" y2="181" gradientUnits="userSpaceOnUse">
<stop stop-color="white"/>
<stop offset="1" stop-color="#D9D9D9"/>
</linearGradient>
<linearGradient id="paint6_linear_40_107" x1="109" y1="32.5" x2="109" y2="109.5" gradientUnits="userSpaceOnUse">
<stop stop-color="white"/>
<stop offset="1" stop-color="#D9D9D9"/>
</linearGradient>
<linearGradient id="paint7_linear_40_107" x1="108.5" y1="46.5" x2="108.5" y2="95.5" gradientUnits="userSpaceOnUse">
<stop stop-color="white"/>
<stop offset="1" stop-color="#D9D9D9"/>
</linearGradient>
<clipPath id="clip0_40_107">
<rect width="83" height="84" fill="white" transform="translate(67 29)"/>
</clipPath>
</defs>
</svg>
