<svg width="168" height="168" viewBox="0 0 168 168" fill="none" xmlns="http://www.w3.org/2000/svg">
<path d="M0 24.8C0 11.1033 11.1033 0 24.8 0H143.2C156.897 0 168 11.1033 168 24.8V143.2C168 156.897 156.897 168 143.2 168H24.8C11.1033 168 0 156.897 0 143.2V24.8Z" fill="white"/>
<path d="M143.2 167.2V168H24.8L24.8 167.2H143.2ZM167.2 143.2V24.8C167.2 11.5452 156.455 0.800002 143.2 0.8H24.8C11.5452 0.800001 0.800002 11.5452 0.8 24.8V143.2C0.800001 156.455 11.5452 167.2 24.8 167.2L24.8 168C11.3173 168 0.347189 157.241 0.0078125 143.84L0 143.2V24.8C0 11.1033 11.1033 0 24.8 0H143.2L143.84 0.0078125C157.241 0.34719 168 11.3173 168 24.8V143.2L167.992 143.84C167.658 157.028 157.028 167.658 143.84 167.992L143.2 168V167.2C156.455 167.2 167.2 156.455 167.2 143.2Z" fill="white"/>
<path d="M23.2 124.774C23.2 123.449 24.2745 122.374 25.6 122.374H44C45.3255 122.374 46.4 123.449 46.4 124.774V142.4C46.4 143.725 45.3255 144.8 44 144.8H25.6C24.2745 144.8 23.2 143.725 23.2 142.4V124.774Z" fill="#1E1E1E"/>
<path d="M56 111.183C56 109.857 57.0745 108.783 58.4 108.783H76.8C78.1255 108.783 79.2 109.857 79.2 111.183V142.4C79.2 143.725 78.1255 144.8 76.8 144.8H58.4C57.0745 144.8 56 143.725 56 142.4V111.183Z" fill="#1E1E1E"/>
<path d="M88.8 97.5914C88.8 96.2659 89.8745 95.1914 91.2 95.1914H109.6C110.925 95.1914 112 96.2659 112 97.5914V142.4C112 143.725 110.925 144.8 109.6 144.8H91.2C89.8745 144.8 88.8 143.725 88.8 142.4V97.5914Z" fill="#1E1E1E"/>
<path d="M121.6 84C121.6 82.6745 122.675 81.6 124 81.6H142.4C143.725 81.6 144.8 82.6745 144.8 84V142.4C144.8 143.725 143.725 144.8 142.4 144.8H124C122.675 144.8 121.6 143.725 121.6 142.4V84Z" fill="#1E1E1E"/>
<path d="M79.6 87.6V26C79.6 23.7909 81.3909 22 83.6 22C85.8091 22 87.6 23.7909 87.6 26V87.6C87.6 89.8091 85.8091 91.6 83.6 91.6C81.3909 91.6 79.6 89.8091 79.6 87.6Z" fill="#1E1E1E"/>
<path d="M96.2 66.6C96.2 65.0465 95.5898 63.5661 94.5188 62.482C93.4491 61.3995 92.0082 60.8 90.5164 60.8H76.6836C73.039 60.8 69.553 59.3346 66.9906 56.7414C64.51 54.2308 63.0903 50.8629 63.0039 47.3414L63 47C63 43.3554 64.4299 39.8502 66.9906 37.2586C69.553 34.6654 73.039 33.2 76.6836 33.2H97.4336C99.6426 33.2001 101.434 34.9909 101.434 37.2C101.434 39.4091 99.6426 41.1999 97.4336 41.2H76.6836C75.1918 41.2 73.7509 41.7995 72.6813 42.882C71.6102 43.9661 71 45.4465 71 47L71.007 47.2906C71.0781 48.7372 71.6772 50.1017 72.6813 51.118C73.7509 52.2005 75.1918 52.8 76.6836 52.8H90.5164C94.161 52.8 97.647 54.2654 100.209 56.8586C102.77 59.4502 104.2 62.9554 104.2 66.6C104.2 70.2446 102.77 73.7498 100.209 76.3414C97.647 78.9346 94.161 80.4 90.5164 80.4H67C64.7909 80.4 63 78.6091 63 76.4C63 74.1909 64.7909 72.4 67 72.4H90.5164C92.0082 72.4 93.4491 71.8005 94.5188 70.718C95.5898 69.6339 96.2 68.1535 96.2 66.6Z" fill="#1E1E1E"/>
</svg>
